<svg clip-rule="evenodd" fill-rule="evenodd" fill="white" height="1.707in" image-rendering="optimizeQuality" shape-rendering="geometricPrecision" text-rendering="geometricPrecision" viewBox="0 0 1707 1707" width="1.707in" xmlns="http://www.w3.org/2000/svg"><g id="Layer_x0020_1"><path d="m1474 940h-1242c-44 0-81-37-81-81v-606c0-44 37-81 81-81h1242c45 0 81 37 81 81v606c0 44-36 81-81 81zm-593-460c-36 0-65-29-65-64 0-36 29-65 65-65 35 0 65 29 65 65 0 35-30 64-65 64zm0-89c-14 0-25 11-25 25 0 13 11 24 25 24 13 0 25-11 25-24 0-14-12-25-25-25zm321 438h-199-498c-35 0-66-18-83-46-1 0-1-1-1-1-9-15-15-33-15-52v-348c0-55 44-99 99-99h697c54 0 98 44 98 99v348c0 23-7 43-20 60v1c-18 23-47 38-78 38zm-697-506c-33 0-59 26-59 59v343l245-356c8-10 26-10 33 0l149 216 108-122c8-9 22-9 30 0l248 280c1-4 1-9 1-13v-348c0-33-26-59-58-59zm391 296 118 170h188c13 0 25-4 35-12l-241-271zm-433 152c11 11 25 18 42 18h460l-110-159c0-1-1-2-2-3l-145-211z"/><path d="m534 212c-11 0-20-9-20-20h-34c0 11-9 20-20 20s-20-9-20-20v-45h114v45c0 11-9 20-20 20z"/><path d="m890 212c-11 0-20-9-20-20h-34c0 11-9 20-20 20s-20-9-20-20v-45h114v45c0 11-8 20-20 20z"/><path d="m1247 212c-11 0-20-9-20-20h-35c0 11-9 20-20 20-10 0-20-9-20-20v-45h115v45c0 11-9 20-20 20z"/><g id="_339701208"><path d="m596 114h-198c-11 0-20-9-20-20v-74c0-11 9-20 20-20h198c11 0 20 9 20 20v74c0 11-9 20-20 20z"/><path d="m952 114h-198c-11 0-20-9-20-20v-74c0-11 9-20 20-20h198c11 0 20 9 20 20v74c0 11-9 20-20 20z"/><path d="m1309 114h-198c-11 0-20-9-20-20v-74c0-11 9-20 20-20h198c11 0 20 9 20 20v74c0 11-9 20-20 20z"/></g><path d="m913 1541v-568h72v568zm-79 0v-568h39v568zm-113 0v-568h73v568z"/><path d="m965 1055c-4 0-9-2-13-5-8-7-9-20-2-28l100-115c8-9 20-9 29-2 8 7 9 20 2 28l-101 115c-3 4-9 7-15 7z"/><path d="m741 1055c-5 0-11-3-15-7l-100-115c-7-8-6-21 2-28s21-7 28 2l100 115c8 8 7 21-2 28-3 3-8 5-13 5z"/><path d="m1182 1707h-657c-11 0-20-9-20-20v-47c0-36 30-66 66-66h565c36 0 66 30 66 66v47c0 11-9 20-20 20z"/><path d="m1066 1614c-6 0-12-3-16-7l-100-115c-7-8-6-21 2-28s21-7 28 2l101 115c7 8 6 21-2 28-4 3-9 5-13 5z"/><path d="m641 1614c-5 0-9-2-13-5-8-7-9-20-2-28l100-115c7-9 20-10 28-2 9 7 10 19 2 28l-100 115c-4 5-9 7-15 7z"/><path d="m1364 1055h-385c-11 0-20-9-20-20s9-20 20-20h385c11 0 20 9 20 20s-8 20-20 20zm-636 0h-386c-11 0-20-9-20-20s9-20 20-20h386c11 0 20 9 20 20s-9 20-20 20z"/><path d="m456 1055c-11 0-20-9-20-20v-115c0-11 9-20 20-20s20 9 20 20v115c0 11-9 20-20 20z"/><path d="m1251 1055c-11 0-20-9-20-20v-115c0-11 9-20 20-20s20 9 20 20v115c0 11-9 20-20 20z"/></g></svg>