<svg id="Layer_1" enable-background="new 0 0 512 512" fill="white" viewBox="0 0 512 512" xmlns="http://www.w3.org/2000/svg"><path clip-rule="evenodd" d="m433.12 286.64-43.21-79.99c-3.19-5.92-8.88-9.31-15.61-9.31h-23.37c-1.37 15.32-8.01 30.09-19.48 41.57-13.11 13.11-30.34 19.67-47.57 19.67-17.22 0-34.45-6.56-47.56-19.67-11.59-11.59-18.05-26.39-19.4-41.57h-63.19c-6.72 0-12.41 3.39-15.61 9.31l-43.2 79.99zm-113-157.24 4.35 4.38c.29.29.75.27 1.04-.01l20.17-20.17 3.79 3.79 31.65-31.66c6.49-6.49 15.15-10.07 24.39-10.07 9.23 0 17.89 3.57 24.38 10.07 17.84 17.83 9.21 33.4 2.91 44.77-5.77 10.42-8.5 16.21-2.49 23.71 3.51 4.37 13.56 4.19 27.47 3.94 1.64-.03 3.33-.06 5.08-.08 3.33-.04 6.03 2.6 6.08 5.92.04 3.31-2.6 6.04-5.92 6.08-1.73.02-3.4.05-5.03.08-3.04.05-5.93.11-8.67.11-12.89 0-22.44-1.14-28.37-8.54-11.33-14.13-4.3-26.83 1.36-37.04 6.12-11.04 10.54-19.03-.9-30.47-4.23-4.22-9.87-6.55-15.9-6.55s-11.68 2.33-15.9 6.55l-31.66 31.66 3.68 3.68-20.17 20.16c-.28.28-.3.75-.01 1.04l4.38 4.35-50.03 50.03c-7.09 7.09-18.61 7.09-25.7 0-3.43-3.43-5.3-8.01-5.3-12.85s1.87-9.42 5.3-12.85zm-18.95 9.42-35.84 35.84c-4.69 4.69-7.27 10.94-7.27 17.61s2.58 12.93 7.27 17.62c4.86 4.86 11.24 7.28 17.62 7.28 6.37 0 12.75-2.43 17.61-7.28l35.84-35.84c6.49 19.6 1.54 41.39-13.44 56.37-21.54 21.55-56.61 21.55-78.16 0s-21.55-56.61 0-78.16c14.97-14.97 36.77-19.92 56.37-13.44zm-209.62-53.63c2.33-.88 3.87-3.12 3.87-5.61s-1.54-4.73-3.87-5.61l-9.5-3.61c-8-3.03-13.59-8.62-16.62-16.62l-3.61-9.51c-.88-2.33-3.12-3.87-5.61-3.87s-4.72 1.54-5.61 3.87l-3.6 9.52c-3.04 7.99-8.63 13.58-16.62 16.62l-9.51 3.61c-2.33.87-3.87 3.11-3.87 5.6 0 2.5 1.54 4.73 3.87 5.61l9.51 3.61c7.99 3.03 13.58 8.62 16.62 16.62l3.6 9.51c.89 2.33 3.12 3.87 5.61 3.87s4.73-1.54 5.61-3.87l3.61-9.51c3.03-7.99 8.62-13.58 16.62-16.62zm-18.27-5.61c-7.44 3.83-13.24 9.63-17.07 17.07-3.83-7.44-9.63-13.24-17.07-17.07 7.44-3.83 13.24-9.63 17.07-17.07 3.83 7.44 9.63 13.24 17.07 17.07zm60.78 33.28c6.26 2.38 10.64 6.75 13.02 13.02l2.96 7.8c.88 2.33 3.11 3.87 5.61 3.87 2.49 0 4.72-1.54 5.61-3.87l2.96-7.8c2.37-6.26 6.75-10.64 13.01-13.02l7.8-2.96c2.34-.89 3.88-3.12 3.88-5.61 0-2.5-1.54-4.72-3.88-5.61l-7.8-2.96c-6.26-2.37-10.64-6.75-13.01-13.01l-2.96-7.8c-.89-2.33-3.12-3.87-5.61-3.87-2.5 0-4.73 1.54-5.61 3.87l-2.96 7.8c-2.38 6.26-6.76 10.64-13.02 13.01l-7.8 2.96c-2.33.89-3.87 3.12-3.87 5.61s1.54 4.73 3.87 5.61zm21.59 3.21c-2.9-4.91-6.88-8.89-11.79-11.78 4.91-2.89 8.89-6.87 11.79-11.79 2.89 4.91 6.87 8.89 11.78 11.79-4.91 2.89-8.89 6.87-11.78 11.78zm-71.12 40.43c2.77 4.64 6.55 8.41 11.19 11.19-4.64 2.78-8.42 6.55-11.19 11.19-2.78-4.64-6.56-8.41-11.2-11.19 4.64-2.78 8.42-6.55 11.2-11.19zm-8.5 32.29c-2.3-6.06-6.54-10.3-12.6-12.6l-7.61-2.88c-2.33-.88-3.87-3.12-3.87-5.61s1.54-4.73 3.87-5.61l7.61-2.88c6.06-2.3 10.3-6.54 12.6-12.6l2.89-7.61c.88-2.33 3.11-3.87 5.61-3.87 2.49 0 4.72 1.54 5.61 3.87l2.88 7.61c2.3 6.06 6.54 10.3 12.6 12.6l7.61 2.88c2.33.89 3.87 3.12 3.87 5.61 0 2.5-1.54 4.73-3.87 5.61l-7.61 2.88c-6.06 2.3-10.3 6.54-12.6 12.6l-2.88 7.6c-.89 2.33-3.12 3.87-5.61 3.87-2.5 0-4.73-1.54-5.61-3.87zm-23.97 97.85h26.79v-11.03c0-6.08-4.94-11.03-11.03-11.03h-15.76c-6.08 0-11.03 4.95-11.03 11.03s4.95 11.03 11.03 11.03zm51.34 67.66h23.04l-3.62-7.39-30.92-12.67v8.56c0 6.34 5.16 11.5 11.5 11.5zm0 59.34h15.16c6.34 0 11.5-5.15 11.5-11.5 0-6.34-5.16-11.5-11.5-11.5h-15.16c-6.34 0-11.5 5.16-11.5 11.5 0 6.35 5.16 11.5 11.5 11.5zm44.44 47.7v-10.55h-62.48c-10.62 0-20.27-4.23-27.35-11.1v21.65c0 5.99 4.87 10.87 10.87 10.87h68.08c6 0 10.88-4.88 10.88-10.87zm294.84-10.55h-62.48v10.55c0 5.99 4.88 10.87 10.87 10.87h68.09c5.99 0 10.87-4.88 10.87-10.87v-21.65c-7.09 6.87-16.73 11.1-27.35 11.1zm-122.99-34.5h-111.34l-11.49 22.5h134.31zm104.94-25.65h-15.15c-6.35 0-11.51 5.16-11.51 11.5s5.16 11.5 11.51 11.5h15.15c6.35 0 11.51-5.15 11.51-11.5 0-6.33-5.16-11.5-11.51-11.5zm11.51-47.84v-8.56l-30.93 12.67-3.62 7.39h23.04c6.35 0 11.51-5.16 11.51-11.5zm33.89-16.81v85.45c0 15.08-12.27 27.35-27.35 27.35h-98.04l-15.93-31.23c-1.03-2.01-3.09-3.27-5.35-3.27h-118.69c-2.25 0-4.32 1.26-5.34 3.27l-15.94 31.23h-98.03c-15.08 0-27.34-12.26-27.35-27.33v-.02h-.01v-85.45c0-15.08 12.28-27.35 27.36-27.35h357.32c15.08 0 27.35 12.27 27.35 27.35zm-337.44 13.59 8.86 18.08c.91 1.86.8 4.06-.3 5.82-1.09 1.76-3.02 2.83-5.09 2.83h-32.66c-12.96 0-23.5-10.54-23.5-23.5v-17.5c0-2 1-3.87 2.66-4.98s3.76-1.33 5.61-.57l41.31 16.93c1.36.54 2.47 1.58 3.11 2.89zm307.27-19.84c1.85-.76 3.96-.55 5.62.57 1.66 1.11 2.66 2.98 2.66 4.98v17.5c0 12.96-10.55 23.5-23.51 23.5h-32.66c-2.07 0-3.99-1.07-5.09-2.83-1.09-1.76-1.21-3.95-.29-5.82l8.85-18.08c.65-1.32 1.75-2.35 3.11-2.91zm-254.41 34.31c-3.32 0-6 2.69-6 6 0 3.32 2.68 6 6 6h157.14c3.31 0 6-2.68 6-6 0-3.31-2.69-6-6-6zm-66.89 24.6c12.96 0 23.5 10.54 23.5 23.5s-10.54 23.5-23.5 23.5h-15.16c-12.96 0-23.5-10.54-23.5-23.5s10.54-23.5 23.5-23.5zm306.07 0c12.96 0 23.51 10.54 23.51 23.5s-10.55 23.5-23.51 23.5h-15.15c-12.96 0-23.51-10.54-23.51-23.5s10.55-23.5 23.51-23.5zm35.58-114.07c-6.08 0-11.03 4.95-11.03 11.03v11.03h26.79c6.08 0 11.03-4.95 11.03-11.03s-4.95-11.03-11.03-11.03z" fill-rule="evenodd"/></svg>