<svg id="Layer_1" enable-background="new 0 0 512 512" fill="white" viewBox="0 0 512 512" xmlns="http://www.w3.org/2000/svg"><path clip-rule="evenodd" d="m122.95 192.88v196.79c12.74-1.45 25.85-5.02 39.65-8.78 18.33-5.02 37.36-10.21 56.27-10.21 13.47 0 26.5 1.99 36.67 5.6.61.21 1.06.15 1.59-.22.49-.37.73-.78.73-1.43v-191.4c-6.49-4.65-20.05-8.92-38.14-8.92-17.64 0-35.89 4.87-53.57 9.57-14.25 3.8-28.95 7.7-43.2 9zm332.62 180.11h-42.63v12.6c0 6.45 5.23 11.7 11.68 11.7h28.13c6.45 0 11.68-5.25 11.68-11.7v-16.26c-2.29 2.33-5.43 3.66-8.86 3.66zm-1.6-182.84c11.11 0 21.48-1.64 28.38-4.5 1.47-.6 2.33-1.8 2.37-3.36.37-8.17-3.88-13.29-12.66-15.22-12.78-2.8-28.75 2.79-33.89 11.47.37 1.21.65 2.38.9 3.44l7.1 7.96c2.29.14 4.82.21 7.8.21zm-113.96 127.05h-70.19v11.22h66.27c3.96 0 7.31-2.97 7.76-6.92.12-1.19-.16-2.12-.98-3.01-.77-.89-1.67-1.29-2.86-1.29zm-19.02-57.53v-5.11c0-.67-.57-1.23-1.23-1.23h-49.94v20.07h37.44c7.56 0 13.73-6.16 13.73-13.73zm110.24-21.4-66.76 13.61c-.16.04-.24.12-.2.27l.04 1.29c.2 6.86 6.17 12.66 13.03 12.66h43.08c6.12 0 11.07-4.61 11.51-10.71l1.1-15.52c.04-.56-.08-.89-.49-1.25-.41-.37-.78-.46-1.31-.35zm-273.73-121.26-.49.1c-.94.18-1.8.58-2.57 1.16-8.57 6.72-20.46 29.57-20.95 30.54-2.78 5.38-7.02 14.03-10.58 22.99-.12-6.33-2.16-12.32-5.72-17.64 14.66-32.09 29.56-48.99 36.99-49.14.33-.01.65-.05 1.02-.11 56.23-10.81 166.59-10.81 222.82 0 .33.06.69.1 1.02.11 5.19.1 15.31 8.53 28.3 31.88 10.45 18.81 18.29 39.36 20.37 49.15.2 1.02.69 1.96 1.39 2.74l36.99 41.71v74.74c0 22.53-3.76 43.26-10.04 55.43-.12.25-.24.32-.49.32h-71.37c-3.84-4.31-9.31-6.8-15.19-6.8h-99.18v-13.77h66.27c10.09 0 18.54-7.55 19.68-17.56.53-4.62-.82-8.89-3.92-12.36s-7.19-5.3-11.84-5.3h-70.19v-19.8h37.44c14.17 0 25.72-11.54 25.72-25.73v-5.11c0-7.3-5.96-13.23-13.23-13.23h-49.94v-40.45h120.39c8.29 0 16.21-1.45 22.29-4.08 2.61-1.13 4.08-3.95 3.47-6.74l-.29-1.45c-2.94-13.73-12.13-32.41-15.92-39.8-.49-.97-12.37-23.82-20.99-30.54-.73-.58-1.59-.98-2.53-1.16l-.49-.1c-37.12-7.13-80.07-7.96-109.14-7.96-29.03 0-71.99.83-109.1 7.96zm204.56 123.12 66.76-13.62c4.25-.87 8.37.23 11.64 3.09 3.23 2.86 4.86 6.81 4.53 11.13l-1.1 15.52c-.9 12.25-11.19 21.85-23.48 21.85h-43.08c-13.39 0-24.62-10.89-25.03-24.28l-.04-1.28c-.2-6 3.92-11.21 9.8-12.41zm33.24 76.49c-3.35 0-6 2.68-6 6 0 3.31 2.65 6 6 6h28.99c3.31 0 6-2.69 6-6 0-3.32-2.69-6-6-6zm-251.16-162.31c4.29-8.29 12-21.13 16.7-25.72 35.85-6.75 77.46-7.54 105.75-7.54s69.9.79 105.75 7.54c4.74 4.59 12.45 17.43 16.74 25.72 3.23 6.29 10.58 21.18 13.92 33.06-3.84.97-8.25 1.51-12.82 1.51h-120.36v-8.47c0-1.65-.65-3.22-1.84-4.35-8.9-8.48-27.4-13.75-48.26-13.75-19.19 0-38.26 5.07-56.67 9.98-10.41 2.77-20.46 5.44-30.22 7.15 3.76-10.05 8.86-20.39 11.31-25.13zm-75.29 25.54c9.06 0 14.82-4.43 14.82-7.48s-5.76-7.48-14.82-7.48-14.86 4.43-14.86 7.48 5.8 7.48 14.86 7.48zm0 21.2c-23.23 0-42.1-12.87-42.1-28.68s18.86-28.67 42.1-28.67c23.19 0 42.1 12.86 42.1 28.67s-18.91 28.68-42.1 28.68zm26.83-28.68c0 10.93-11.8 19.48-26.83 19.48-15.07 0-26.87-8.55-26.87-19.48 0-10.92 11.8-19.48 26.87-19.48 15.03 0 26.83 8.56 26.83 19.48zm15.27 226.97v-201.46c-9.92 9.24-25.11 15.17-42.1 15.17s-32.18-5.93-42.1-15.17v201.46c0 15.81 18.86 28.67 42.1 28.67 23.19 0 42.1-12.86 42.1-28.67z" fill-rule="evenodd"/></svg>