<svg id="Layer_1" enable-background="new 0 0 512 512" fill="white" viewBox="0 0 512 512" xmlns="http://www.w3.org/2000/svg"><path clip-rule="evenodd" d="m451.33 322.06c2.71-4.72 3.76-8.67 3.76-14.11v-98.97l-80.25-24.36-80.25 24.36v98.97c0 5.44 1.05 9.4 3.76 14.11 18.72 32.64 51.42 53.49 76.49 65.5 25.07-12.01 57.76-32.87 76.49-65.5zm-411.57-137.12h28.6c1.5 0 2.9-.51 4.05-1.45l2.33-5.92c-.46-3.13-3.14-5.54-6.38-5.54h-28.6c-3.56 0-6.46 2.9-6.46 6.46s2.9 6.45 6.46 6.45zm53.13 197.77v-23.22h-44.77c-5.11 0-9.95-1.16-14.28-3.22v26.44c0 4.61 3.75 8.37 8.37 8.37h42.31c4.62 0 8.37-3.75 8.37-8.37zm163.86-51.69h-122.72l-6.54 16.47h137.53c-.97-1.56-1.92-3.12-2.82-4.7-2.24-3.89-4.04-7.79-5.45-11.77zm-143.38-53.39-11.97-16.92h-45.89c4.62 10.01 14.87 16.92 26.21 16.92zm139.54-16.91h-101.82l11.97 16.92h89.86v-16.92zm0-57.67v45.67h-113.42c-2.24 0-4.3 1.25-5.33 3.24s-.86 4.39.43 6.22l20.45 28.92c1.12 1.59 2.95 2.54 4.9 2.54h92.97v18.31c0 3.83.27 7.5.82 11.08h-123.78c-2.46 0-4.67 1.5-5.58 3.79l-9.8 24.68h-66.45c-11.78 0-21.37-9.59-21.37-21.37v-69.41c0-7.02 2.68-12.93 7.96-17.55l37.26-32.6c1.28-1.12 2.44-2.3 3.51-3.52zm-143.5 48.2 20.45 28.92c1.3 1.83 1.46 4.23.43 6.22s-3.09 3.25-5.33 3.25h-43.24c-19.92 0-36.84-14.26-40.22-33.9-.3-1.74.19-3.53 1.33-4.89 1.14-1.35 2.82-2.13 4.59-2.13h57.1c1.94 0 3.77.94 4.89 2.53zm147.76-74.46c-2.53.77-4.26 3.1-4.26 5.74v8.52h-170.59l28.4-72.07c3.59-9.11 11.9-14.77 21.7-14.77h159.73c9.79 0 18.11 5.66 21.7 14.77l14.29 36.27zm119.41-4.18 86.25 26.18c2.53.77 4.26 3.1 4.26 5.74v103.42c0 7.54-1.6 13.54-5.35 20.08-20.92 36.48-57.43 59.07-84.37 71.6-.8.38-1.67.56-2.53.56s-1.73-.18-2.53-.56c-26.94-12.53-63.45-35.12-84.37-71.6-3.75-6.54-5.35-12.54-5.35-20.08v-103.42c0-2.64 1.73-4.97 4.26-5.74l86.25-26.18c1.13-.34 2.34-.34 3.48 0zm100.48 164.21c-19.74 34.43-55.99 63.92-102.23 83.24-46.24-19.32-82.48-48.81-102.23-83.24-5.32-9.27-7.69-18.18-7.69-28.87v-120.97l109.92-33.36 109.92 33.36v120.97c0 10.69-2.37 19.59-7.69 28.87z" fill-rule="evenodd"/></svg>