<svg id="Layer_1" height="512" viewBox="0 0 524.978 244.2419" fill="white" width="512" xmlns="http://www.w3.org/2000/svg"><g><path d="m520.2968 148.0546h-3.0566l1.1792-21.8514c.2488-4.6091-.9464-9.1812-3.4189-13.079l-13.1215-20.6842c-2.746-4.3287-6.9064-7.5729-11.7738-9.1809l-62.666-20.7033-122.1017-48.1636c-28.2326-11.1366-58.2699-15.8939-88.2627-13.9792l-135.1114 8.6248c-3.5654.2277-6.9622 1.5999-9.6852 3.9126l-47.2813 40.1575c-4.0586 3.4471-6.2164 8.6326-5.8014 13.9412l1.5045 19.2476c.3921 5.0154-1.5123 9.938-5.1776 13.3838l-3.6272 3.4099c-3.5615 3.3481-5.4657 8.0962-5.2044 12.9774l1.7122 31.9868h-3.7217c-2.5747 0-4.6813 2.1066-4.6813 4.6813v8.2837c0 2.5747 2.1066 4.6814 4.6813 4.6814h23.1802v1.9097h7.7335 3.575v-5.6543c0-24.9427 20.2925-45.2344 45.2344-45.2344s45.2344 20.2916 45.2344 45.2344v5.6543h3.5757 7.7329v-1.9097h129.7403l2.2916-16.7219h-2.2018l-6.1779-81.5422 3.4406.2594 5.7239 75.5562.7748-5.6537-5.2887-69.8113 3.4406.2595 4.0512 53.4756.6828-4.9827c.0255-.1855.0667-.3655.1013-.5479l-3.6252-47.8538 3.4401.2593 3.1745 41.9036c.3527-.3567.7307-.6865 1.1279-.9927l-3.0924-40.8196 3.4406.2594 2.9407 38.8173c.3853-.127.7775-.2356 1.1789-.3196l-2.9096-38.4065 3.4406.2595 2.8779 37.9893c.1046.0112.21.0073.3139.0215-.574-2.7858-.6986-5.7113-.291-8.6855.0934-.6816.2261-1.3494.3714-2.012l-2.0623-27.2219 3.4401.2593 1.4858 19.6125c.3384-.5837.6923-1.1563 1.0736-1.7095l-1.3494-17.8118 3.4406.2594 1.0469 13.8193c.3677-.3634.7338-.7286 1.1221-1.0695l-.959-12.6587 3.4407.2595.7571 9.993c.377-.2394.7615-.4652 1.1511-.6852l-.6982-9.2166 3.4402.2593.5585 7.3732c.3842-.1498.7802-.2719 1.1725-.4034l-.521-6.8784 3.4406.2595.4332 5.7191c.3918-.0742.793-.1151 1.1902-.171l-.4133-5.457 3.4404.2595.3735 4.9287c.0531-.0002.1049-.0073.1581-.0073.3475 0 .6976.0217 1.0471.036l-.3687-4.8661 3.4401.2593.3765 4.9686c.4104.0719.8175.1533 1.2216.244l-.3881-5.1213 3.4407.2595.4479 5.9124c.4188.1587.8329.3275 1.2416.5073l-.4795-6.3285 3.4407.2594.605 7.9855c.4318.2792.8546.5723 1.2695.8774l-.6646-8.7716 3.4401.2593.8936 11.7949c.4398.4769.8593.9771 1.2664 1.4905l.0465-.042-.9963-13.1521 3.4402.2594.7581 10.0043 1.1261-1.0159-.6741-8.8972 3.4403.2595.4536 5.9871c.373-.2292.7615-.4282 1.1567-.6121l-.4003-5.2837 3.4408.2594.3079 4.0648c.3955-.0496.7942-.0812 1.1964-.0886l-.2943-3.885 3.4401.2595.2936 3.8738c-.4519.0155-.9089.0295-1.3806.0393-2.8506.0586-3.9258 1.3438-4.3262 2.4111-.1199.3197-.1855.6741-.207 1.0564-.9595.3416-1.8699.8704-2.6732 1.5952l-6.2472 5.6357c3.0419 5.0313 4.2676 10.9033 3.4581 16.8105-.0901.6575-.2198 1.3008-.3583 1.9407l13.1647-11.8761c1.5092 1.9574 3.1899 4.0012 4.9895 6.0907l2.3344 30.8118 1.1838-.2537-2.2004-29.0442c1.2072 1.3738 2.4568 2.7612 3.7354 4.1516l1.8311 24.1713 1.1838-.2538-1.7046-22.502c1.2241 1.3138 2.4673 2.6259 3.7183 3.9261l1.3525 17.8546 1.1838-.2537-1.2311-16.2511c1.2378 1.2743 2.4772 2.5336 3.7059 3.7679l.891 11.762 1.184-.2538-.7732-10.2054c1.2539 1.2498 2.4901 2.468 3.6973 3.6472l.4421 5.8369 1.1838-.2537-.327-4.3182c1.2926 1.2543 2.5419 2.4545 3.7318 3.5887l2.7395-.5872c-18.2654-17.3972-39.8636-40.3745-37.835-45.7871.2192-.584.9658-.8936 2.2202-.9199 13.2471-.2744 19.0688-2.7705 21.4541-4.3643l17.4252 50.5186c.2277-.0139.4556-.0364.6829-.0364 5.29 0 9.9326 3.7573 11.041 8.9341.2494 1.1632.3063 2.3231.1971 3.4487 7.917-13.1682 22.3416-21.999 38.793-21.999 24.9419 0 45.2345 20.2916 45.2345 45.2344v5.6543h3.5748 7.7338v-1.9097h23.452c2.5747 0 4.6813-2.1067 4.6813-4.6814v-8.2837c-.0005-2.5743-2.107-4.6808-4.6817-4.6808zm-290.2732-138.631c24.5756 0 48.7509 4.6213 71.8567 13.735l70.4679 27.7965 12.2635 16.1824-151.7361-10.6697-7.2046-46.9745c1.4531-.0327 2.908-.0697 4.3526-.0697zm131.0252 65.286.1769 2.3353c-1.0322.1677-2.1576.3196-3.387.4484l-.2305-3.0431zm1.2101.0912 3.4402.2595.0759 1.001c-.9695.2727-2.0854.5361-3.3619.7756zm4.6503.3507 1.3094.0988c-.3833.15-.8066.3016-1.2677.4526zm-150.7157-19.8568-7.639-.5371-96.4092-14.8577-2.8855-23.1613 105.3271-6.724zm-103.7277.4724.8661-6.1619 26.0866 3.6665-.8661 6.162zm119.5398 9.2119 3.4819.2625 6.3438 83.7375h-4.5413zm11.0288 84-6.3368-83.6462 3.4401.2594 6.3172 83.3868zm4.6235 0-6.3102-83.2957 3.4406.2595 6.2906 83.0361h-3.421zm4.624 0-6.2837-82.9449 3.4401.2594 6.2645 82.6855zm4.624 0-6.2576-82.5942 3.4406.2594 6.2375 82.3348zm4.6236 0-6.2305-82.2437 3.4406.2595 6.2109 81.9841h-3.421zm-183.1507-128.8455c1.1688-.9929 2.6551-1.5935 4.1837-1.6906l18.9368-1.2089.6087 21.1189-32.59-5.0223-3.4008-2.7831zm191.1957 128.8455h-3.421l-6.204-81.8929 3.4401.2594zm83.3831-74.8796 3.4406.2595.2462 3.2485c-1.0608.0933-2.1982.1682-3.4041.2249z"/><path d="m123.8251 161.9567c0-1.2325-.0627-2.4496-.1724-3.6509-1.844-20.059-18.7048-35.7694-39.244-35.7694-20.543 0-37.4059 15.7104-39.2479 35.7694-.1116 1.2013-.1763 2.4183-.1763 3.6509 0 21.7698 17.6486 39.4198 39.4243 39.4198 21.7697 0 39.4163-17.6501 39.4163-39.4198zm-39.4163 25.5921c-14.114 0-25.5962-11.4807-25.5962-25.592 0-.7476.0378-1.526.1175-2.3815 1.2153-13.235 12.1682-23.2114 25.4787-23.2114 13.3065 0 24.258 9.9772 25.4747 23.2081.0756.8345.1135 1.6184.1135 2.3848-.0001 14.1113-11.4783 25.592-25.5882 25.592z"/><path d="m96.1691 161.9568c0-.3418-.0189-.7137-.0554-1.1189-.5577-6.0692-5.5905-10.6462-11.705-10.6462-6.1172 0-11.1513 4.5776-11.7104 10.6658-.0391.4187-.058.7778-.058 1.0994 0 6.4871 5.2799 11.7643 11.7684 11.7643 6.4845-.0001 11.7604-5.2774 11.7604-11.7644z"/><path d="m395.0673 161.9563c0-5.6941 1.0679-11.1407 2.9969-16.1641-1.4623 1.4041-3.3097 2.4409-5.4333 2.896l-39.3027 8.4224c-.7764.1665-1.5732.251-2.3682.251-2.9121 0-5.6777-1.105-7.7871-3.1118l-5.5419-5.2708h-2.1196l-.1646-2.1724-1.0685-1.0164-.1307 1.0669.1608 2.1218h-.4208l-2.049 16.7219h51.92v1.9097h7.7327 3.5759v-5.6542z"/><path d="m479.7214 161.9567c0-1.2325-.0626-2.4496-.1724-3.6509-1.8441-20.059-18.705-35.7694-39.244-35.7694-20.543 0-37.4058 15.7104-39.2478 35.7694-.1117 1.2013-.1765 2.4183-.1765 3.6509 0 21.7698 17.6487 39.4198 39.4243 39.4198 21.7698 0 39.4164-17.6501 39.4164-39.4198zm-39.4162 25.5921c-14.1141 0-25.5962-11.4807-25.5962-25.592 0-.7476.0377-1.526.1174-2.3815 1.2153-13.235 12.1681-23.2114 25.4788-23.2114 13.3065 0 24.2579 9.9772 25.4747 23.2081.0756.8345.1133 1.6184.1133 2.3848 0 14.1113-11.478 25.592-25.588 25.592z"/><path d="m452.0656 161.9568c0-.3418-.0189-.7137-.0554-1.1189-.5576-6.0692-5.5906-10.6462-11.705-10.6462-6.1172 0-11.1514 4.5776-11.7103 10.6658-.0393.4187-.0581.7778-.0581 1.0994 0 6.4871 5.2799 11.7643 11.7684 11.7643 6.4845-.0001 11.7604-5.2774 11.7604-11.7644z"/><path d="m337.5323 114.6235c-.3374.5925-.6902 1.1746-1.0717 1.7361l.026.3433 1.2965 1.233z"/><path d="m342.7662 122.6748-.9275-12.2417-1.1262 1.0159.7571 9.9928z"/><path d="m347.7491 127.4138-1.5822-20.885-1.1263 1.0159 1.412 18.636z"/><path d="m352.7318 132.1523-2.2368-29.5279-1.1262 1.0159 2.0666 27.2791z"/><path d="m357.429 133.1187-2.6061-34.3985-1.1261 1.0159 2.5483 33.6362z"/><path d="m293.3255 107.5869c9.3797 1.2852 34.5123 4.7285 34.5759 4.7385 2.1559.1052 4.2098.8257 5.9496 2.0514 1.8209-2.7378 3.0681-5.9186 3.5444-9.3947 1.6873-12.3118-6.9241-23.6592-19.2366-25.3467-12.3108-1.687-23.6594 6.925-25.3467 19.2367-.4118 3.0051-.206 5.9511.5134 8.7148z"/><path d="m398.085 135.9631c-.9248-4.3198-5.1709-7.0703-9.499-6.146l-35.1729 7.5371-20.5557-19.5483c-1.4932-1.4209-3.3936-2.1421-5.3037-2.1914-.0918-.0166-.1836-.0361-.2783-.0435l-37.875-5.1909c-4.2295-.5796-8.126 2.3799-8.7061 6.6079l-8.9951 65.6348c-.9404 3.6919-.1621 7.7656 2.4736 10.9067l11.1123 13.2437-24.6865 9.4404c-6.3193 2.4165-9.4834 9.498-7.0674 15.8174 1.8662 4.8799 6.5146 7.8779 11.4443 7.8779 1.4551 0 2.9346-.2612 4.373-.8115l40.75-15.583c3.7012-1.415 6.4883-4.5322 7.4824-8.3672.9951-3.835.0732-7.9141-2.4736-10.9487l-1.7363-2.0688 10.7686-2.9912-7.6934 29.7871c-1.6924 6.5508 2.2461 13.2324 8.7969 14.9238 1.0273.2656 2.0576.3926 3.0723.3926 5.4512 0 10.4258-3.667 11.8516-9.1895l13-50.333c1.0947-4.2383-.1543-8.7373-3.2773-11.8047-3.1221-3.0654-7.6426-4.2334-11.8613-3.0625l-10.376 2.8828 4.1475-33.856 13.6475 12.9795c1.502 1.4287 3.4814 2.2031 5.5127 2.2031.5576 0 1.1191-.0581 1.6768-.1777l39.3027-8.4224c4.3192-.9257 7.0711-5.1782 6.1454-9.4985z"/></g></svg>