<svg id="Layer_1" enable-background="new 0 0 480.002 480.002" fill="white" height="512" viewBox="0 0 480.002 480.002" width="512" xmlns="http://www.w3.org/2000/svg"><g><circle cx="334.002" cy="324.531" r="92"/><path d="m425.927 221.293-12.729 12.728c-3.124 3.124-3.124 8.189 0 11.314 3.124 3.124 8.189 3.125 11.313 0l12.729-12.728c3.124-3.124 3.124-8.189 0-11.314-3.124-3.123-8.189-3.124-11.313 0z"/><path d="m243.492 403.727-12.728 12.728c-3.125 3.124-3.125 8.19 0 11.314 3.124 3.124 8.189 3.125 11.313 0l12.729-12.728c3.124-3.124 3.124-8.19 0-11.314-3.125-3.125-8.189-3.125-11.314 0z"/><path d="m424.511 403.727c-3.123-3.124-8.188-3.124-11.313 0-3.124 3.124-3.124 8.189 0 11.314l12.729 12.728c1.562 1.562 3.608 2.343 5.656 2.343 7.059 0 10.716-8.598 5.657-13.657z"/><path d="m243.492 245.335c3.125 3.124 8.189 3.125 11.314 0 3.124-3.124 3.124-8.189 0-11.314l-12.729-12.728c-3.124-3.125-8.189-3.125-11.313 0-3.125 3.124-3.125 8.189 0 11.314z"/><path d="m334.002 212.531c4.418 0 8-3.582 8-8v-18c0-4.418-3.582-8-8-8s-8 3.582-8 8v18c0 4.418 3.582 8 8 8z"/><path d="m334.002 436.531c-4.418 0-8 3.582-8 8v18c0 4.418 3.582 8 8 8s8-3.582 8-8v-18c0-4.418-3.582-8-8-8z"/><path d="m472.002 316.531h-18c-4.418 0-8 3.582-8 8s3.582 8 8 8h18c4.418 0 8-3.582 8-8s-3.582-8-8-8z"/><path d="m214.002 316.531h-18c-4.418 0-8 3.582-8 8s3.582 8 8 8h18c4.418 0 8-3.582 8-8s-3.582-8-8-8z"/><path d="m236.499 377.729c-2.292 1.962-4.624 3.906-6.998 5.83-2.606 2.112-6.499.231-6.499-3.123v-31.833c0-1.076.612-2.058 1.577-2.532 1.634-.803 3.593.13 3.987 1.907 1.946 8.767 4.963 17.13 8.904 24.957.819 1.626.413 3.609-.971 4.794z"/><path d="m242.126 267.819c-6.273 10.117-10.917 21.341-13.568 33.307-.389 1.755-2.317 2.682-3.931 1.889-1.484-.729-1.625-2.065-1.625-2.53v-53.014c9.335 9.335 11.469 12.213 17.29 14.516 2.306.912 3.141 3.723 1.834 5.832z"/><path d="m172.006 324.079c-.249 13.446 11.089 24.452 24.537 24.452h6.458c2.209 0 4 1.791 4 4v27.956c0 3.356-3.897 5.234-6.506 3.123-90.622-73.343-120.495-177.316-129.483-252.729-.55-4.67 2.31-9.07 6.8-10.44l124.018-37.996c2.571-.788 5.172 1.135 5.172 3.825v210.261c0 2.209-1.791 4-4 4h-7c-13.099 0-23.755 10.506-23.996 23.548z"/><path d="m358.912 130.881c-1.26 10.596-2.937 21.757-5.137 33.318-.541 2.844-3.828 4.167-6.214 2.529-15.882-10.905-37.558.622-37.558 20.314v17.489c0 3.363.696 6.568 1.951 9.475.968 2.242-.363 4.837-2.74 5.397-11.448 2.696-22.198 7.222-31.924 13.253-2.108 1.307-4.919.472-5.831-1.834-1.169-2.954-2.949-5.724-5.336-8.11l-12.73-12.73c-6.785-6.785-16.633-8.658-25.105-5.613-2.579.927-5.285-1.073-5.285-3.814v-114.265c0-2.689 2.6-4.612 5.172-3.825l123.938 37.966c4.499 1.38 7.359 5.78 6.799 10.45z"/><path d="m429.922 98.491c-.499 37.77-5.551 73.866-13.595 108.085-.344 1.462-1.092 2.79-2.158 3.848-12.936 12.841-14.132 13.842-16.101 17.25-2.187 3.784-7.111 5.002-10.913 2.847-6.949-3.939-14.659-7.253-22.826-9.649-4.228-1.24-6.622-5.689-5.379-9.917 7.311-24.865 12.609-50.978 15.852-78.185 1.47-12.36-6.1-23.99-18-27.63l-134.31-41.14c-4.85-1.491-10.026-1.521-15.06 0l-134.3 41.14c-11.91 3.64-19.48 15.27-18 27.64 12.667 106.346 58.262 205.292 144.38 270.37 2.476 1.876 5.237 3.219 8.039 4.066 3.987 1.206 6.458 5.286 5.496 9.339-3.15 13.26 5.721 27.624 20.506 29.375 7.026.888 14.449-1.459 19.84-6.85 13.447-13.447 15.211-14.628 17.494-19.507 1.473-3.147 5.575-4.542 8.455-1.736.962.937 2.193 1.52 3.48 1.905 3.988 1.195 4.898 6.087 1.934 8.589-16.643 14.046-34.582 26.689-53.773 37.879-9.88 5.76-22.16 5.76-32.04 0-130.413-76.071-194.81-215.088-198.931-367.789-.39-14.35 8.93-27.3 22.65-31.51l182.91-56.03c6.15-1.88 12.64-1.88 18.78 0l182.92 56.04c12.45 3.805 22.865 15.3 22.65 31.57z"/></g></svg>