<svg id="Capa_1" enable-background="new 0 0 512 512" fill="white" height="512" viewBox="0 0 512 512" width="512" xmlns="http://www.w3.org/2000/svg"><g><path d="m416 0h-320c-8.284 0-15 6.716-15 15v100c0 8.284 6.716 15 15 15h40c8.284 0 15-6.716 15-15v-45h70v270h-35c-8.284 0-15 6.716-15 15v40c0 8.284 6.716 15 15 15h140c8.284 0 15-6.716 15-15v-40c0-8.284-6.716-15-15-15h-35v-270h70v45c0 8.284 6.716 15 15 15h40c8.284 0 15-6.716 15-15v-100c0-8.284-6.716-15-15-15z"/><path d="m486.607 446.393-40-40c-5.858-5.858-15.355-5.858-21.213 0-5.858 5.858-5.858 15.355 0 21.213l14.392 14.394h-367.573l14.393-14.393c5.858-5.858 5.858-15.355 0-21.213-5.858-5.858-15.355-5.858-21.213 0l-40 40c-5.858 5.858-5.858 15.355 0 21.213l40 40c5.858 5.858 15.355 5.858 21.213 0 5.858-5.858 5.858-15.355 0-21.213l-14.393-14.394h367.573l-14.393 14.393c-5.858 5.858-5.858 15.355 0 21.213 5.858 5.858 15.355 5.858 21.213 0l40-40c5.858-5.857 5.858-15.355.001-21.213z"/></g></svg>