<svg height="512" viewBox="0 0 56 34" width="512" fill="white" xmlns="http://www.w3.org/2000/svg"><g id="Page-1" fill-rule="evenodd"><g id="092---Vehicle-Wrapping" fill="white" fill-rule="nonzero"><path id="Shape" d="m5 0c-2.76005315.00330612-4.99669388 2.23994685-5 5v23c0 1.1045695.8954305 2 2 2h.08c-.4153151-2.7234487.80543178-5.4372486 3.11878491-6.9332623 2.31335313-1.4960136 5.28907709-1.4960136 7.60243019 0 2.3133531 1.4960137 3.5341 4.2098136 3.1187849 6.9332623h5.559l-13.133-30z"/><path id="Shape" d="m9 24c-2.76142375 0-5 2.2385763-5 5s2.23857625 5 5 5c2.7614237 0 5-2.2385763 5-5-.0033061-2.7600532-2.2399468-4.9966939-5-5zm0 8c-1.65685425 0-3-1.3431458-3-3s1.34314575-3 3-3c1.6568542 0 3 1.3431458 3 3s-1.3431458 3-3 3z"/><circle id="Oval" cx="9" cy="29" r="1"/><path id="Shape" d="m35 11h11.091l-6.423-9.28c-.7462722-1.07936639-1.97577-1.72253437-3.288-1.72l-2.38-.00000746v10.00000746c0 .5522847.4477153 1 1 1z"/><path id="Shape" d="m27.938 14.863c.0362162-.0182473.0598773-.0545022.062-.095l-16.533-12.625 10.554 24.108c.604-7.006 3.813-10.099 5.917-11.388z"/><circle id="Oval" cx="46" cy="29" r="1"/><path id="Shape" d="m52 17v-3.085l-4.112-.915h-12.888c-1.6568542 0-3-1.3431458-3-3v-10h-20.035l17.213 13.106c.5484211.415788.8560705 1.0756249.822 1.763-.0362944.699417-.4158326 1.3357237-1.014 1.7-2.074 1.271-5.4 4.7-5.02 13.431h15.114c-.4153151-2.7234487.8054318-5.4372486 3.1187849-6.9332623 2.3133531-1.4960136 5.2890771-1.4960136 7.6024302 0 2.3133531 1.4960137 3.5341 4.2098136 3.1187849 6.9332623h1.08c1.1045695 0 2-.8954305 2-2v-8h-1c-1.6568542 0-3-1.3431458-3-3z"/><path id="Shape" d="m54.436 14.457-.436-.097v2.64c0 .5522847.4477153 1 1 1h1v-1.59c-.0020986-.9360701-.6510148-1.7463855-1.564-1.953z"/><path id="Shape" d="m46 24c-2.7614237 0-5 2.2385763-5 5s2.2385763 5 5 5 5-2.2385763 5-5c-.0033061-2.7600532-2.2399468-4.9966939-5-5zm0 8c-1.6568542 0-3-1.3431458-3-3s1.3431458-3 3-3 3 1.3431458 3 3-1.3431458 3-3 3z"/></g></g></svg>